<svg xmlns="http://www.w3.org/2000/svg" width="1200" height="630" viewBox="0 0 1200 630" role="img" aria-labelledby="title desc">
  <title id="title">24x7 weather grid preview</title>
  <desc id="desc">A colorful seven-day hourly weather grid with the 24x7 app name.</desc>
  <defs>
    <linearGradient id="bg" x1="0" y1="0" x2="1" y2="1">
      <stop offset="0" stop-color="#070a10"/>
      <stop offset="0.48" stop-color="#111827"/>
      <stop offset="1" stop-color="#05070c"/>
    </linearGradient>
    <linearGradient id="temp" x1="0" y1="0" x2="1" y2="1">
      <stop offset="0" stop-color="#24124d"/>
      <stop offset="0.24" stop-color="#0b63ce"/>
      <stop offset="0.48" stop-color="#20d67a"/>
      <stop offset="0.68" stop-color="#fff200"/>
      <stop offset="0.86" stop-color="#ff8a00"/>
      <stop offset="1" stop-color="#d9281e"/>
    </linearGradient>
    <filter id="soft" x="-20%" y="-20%" width="140%" height="140%">
      <feDropShadow dx="0" dy="18" stdDeviation="24" flood-color="#000" flood-opacity=".42"/>
    </filter>
  </defs>
  <rect width="1200" height="630" fill="url(#bg)"/>
  <circle cx="1025" cy="110" r="210" fill="#14233d" opacity=".45"/>
  <circle cx="135" cy="535" r="245" fill="#203315" opacity=".45"/>
  <g filter="url(#soft)">
    <rect x="112" y="112" width="976" height="386" rx="26" fill="#0b0f18"/>
    <g transform="translate(134 136)">
      <rect width="932" height="338" rx="12" fill="#111827"/>
      <g stroke="#fff" stroke-opacity=".13" stroke-width="1">
        <path d="M0 48H932M0 96H932M0 144H932M0 192H932M0 240H932M0 288H932"/>
        <path d="M133 0V338M266 0V338M399 0V338M532 0V338M665 0V338M798 0V338"/>
      </g>
      <g opacity=".96">
        <rect x="0" y="0" width="133" height="48" fill="#292056"/>
        <rect x="133" y="0" width="133" height="48" fill="#133f8f"/>
        <rect x="266" y="0" width="133" height="48" fill="#0f8e89"/>
        <rect x="399" y="0" width="133" height="48" fill="#3fc85d"/>
        <rect x="532" y="0" width="133" height="48" fill="#dce623"/>
        <rect x="665" y="0" width="133" height="48" fill="#ff9f11"/>
        <rect x="798" y="0" width="134" height="48" fill="#ec5b14"/>
        <rect x="0" y="48" width="133" height="48" fill="#162f73"/>
        <rect x="133" y="48" width="133" height="48" fill="#0f7d9d"/>
        <rect x="266" y="48" width="133" height="48" fill="#22bb6c"/>
        <rect x="399" y="48" width="133" height="48" fill="#c8e932"/>
        <rect x="532" y="48" width="133" height="48" fill="#ffbc1a"/>
        <rect x="665" y="48" width="133" height="48" fill="#ff8f12"/>
        <rect x="798" y="48" width="134" height="48" fill="#d94317"/>
        <rect x="0" y="96" width="133" height="48" fill="#0c4c9a"/>
        <rect x="133" y="96" width="133" height="48" fill="#12a883"/>
        <rect x="266" y="96" width="133" height="48" fill="#abdf35"/>
        <rect x="399" y="96" width="133" height="48" fill="#ffe21c"/>
        <rect x="532" y="96" width="133" height="48" fill="#ffad12"/>
        <rect x="665" y="96" width="133" height="48" fill="#ff7a0f"/>
        <rect x="798" y="96" width="134" height="48" fill="#c73121"/>
        <rect x="0" y="144" width="133" height="48" fill="#178e92"/>
        <rect x="133" y="144" width="133" height="48" fill="#65d549"/>
        <rect x="266" y="144" width="133" height="48" fill="#ffe81c"/>
        <rect x="399" y="144" width="133" height="48" fill="#ffbd14"/>
        <rect x="532" y="144" width="133" height="48" fill="#ff9210"/>
        <rect x="665" y="144" width="133" height="48" fill="#e75216"/>
        <rect x="798" y="144" width="134" height="48" fill="#9b2630"/>
        <rect x="0" y="192" width="133" height="48" fill="#0f7f96"/>
        <rect x="133" y="192" width="133" height="48" fill="#36c466"/>
        <rect x="266" y="192" width="133" height="48" fill="#d9ea2a"/>
        <rect x="399" y="192" width="133" height="48" fill="#ffc019"/>
        <rect x="532" y="192" width="133" height="48" fill="#ff8e12"/>
        <rect x="665" y="192" width="133" height="48" fill="#d84b17"/>
        <rect x="798" y="192" width="134" height="48" fill="#6b2141"/>
        <rect x="0" y="240" width="133" height="48" fill="#123d87"/>
        <rect x="133" y="240" width="133" height="48" fill="#0c8f96"/>
        <rect x="266" y="240" width="133" height="48" fill="#6ed452"/>
        <rect x="399" y="240" width="133" height="48" fill="#f4dc21"/>
        <rect x="532" y="240" width="133" height="48" fill="#ffa814"/>
        <rect x="665" y="240" width="133" height="48" fill="#e56a15"/>
        <rect x="798" y="240" width="134" height="48" fill="#42194a"/>
        <rect x="0" y="288" width="133" height="50" fill="#17255e"/>
        <rect x="133" y="288" width="133" height="50" fill="#0c579c"/>
        <rect x="266" y="288" width="133" height="50" fill="#169385"/>
        <rect x="399" y="288" width="133" height="50" fill="#66c94e"/>
        <rect x="532" y="288" width="133" height="50" fill="#e8cc25"/>
        <rect x="665" y="288" width="133" height="50" fill="#d96a16"/>
        <rect x="798" y="288" width="134" height="50" fill="#281447"/>
      </g>
    </g>
  </g>
  <text x="112" y="530" fill="#fff" font-family="Inter,Segoe UI,Arial,sans-serif" font-size="72" font-weight="800">24x7</text>
  <text x="352" y="522" fill="#c8d2e5" font-family="Inter,Segoe UI,Arial,sans-serif" font-size="34" font-weight="600">Your week of weather, one screen.</text>
  <rect x="782" y="526" width="306" height="24" rx="12" fill="url(#temp)"/>
</svg>
